<?xml version="1.0" encoding="utf-8"?>
<!-- Generator: Adobe Illustrator 24.0.1, SVG Export Plug-In . SVG Version: 6.00 Build 0)  -->
<svg version="1.1" id="Layer_1" xmlns="http://www.w3.org/2000/svg" xmlns:xlink="http://www.w3.org/1999/xlink" x="0px" y="0px"
	 viewBox="0 0 461.7 150" style="enable-background:new 0 0 461.7 150;" xml:space="preserve">
<style type="text/css">
	.st0{display:none;fill:#000D28;stroke:url(#SVGID_3_);stroke-width:0.1;stroke-miterlimit:10;}
	.st1{fill:#E6E6E6;stroke:#000000;stroke-miterlimit:10;}
	.st2{fill:#FEC200;}
	.st3{fill:#FAFF0D;}
	.st4{fill:#FFFFFF;}
	.st5{font-family:'Poppins-Bold';}
	.st6{font-size:40px;}
</style>
<g id="Layer_3">
	<g>
		<g>
			<g>
				<defs>
					<rect id="SVGID_1_" x="-768" y="-1265" width="1920" height="1080"/>
				</defs>
				<clipPath id="SVGID_2_">
					<use xlink:href="#SVGID_1_"  style="overflow:visible;"/>
				</clipPath>
			</g>
		</g>
	</g>
</g>
<g id="Layer_2_1_">
	
		<linearGradient id="SVGID_3_" gradientUnits="userSpaceOnUse" x1="105.78" y1="886.715" x2="267.75" y2="886.715" gradientTransform="matrix(1 0 0 -1 0 152)">
		<stop  offset="0" style="stop-color:#3DDEED"/>
		<stop  offset="1" style="stop-color:#3DDEED;stop-opacity:0"/>
	</linearGradient>
	<rect x="105.8" y="-815.7" class="st0" width="161.9" height="161.9"/>
</g>
<g id="Layer_4">
	<g>
		<path class="st1" d="M150.1-818.8l0.3,85.6c0,0-0.6,20.4,19.4,20.7c20,0.3,65.9-0.9,65.9-0.9l-0.6-21.3l-52.8,0.3
			c0,0-3.6,1.2-3.9-4.7s-0.6-28.1-0.6-28.1l50.4-0.9l-0.3-19.5l-48.6,0.3l-0.3-21c0,0-0.6-5.6,4.8-6.2c5.4-0.6,50.4-0.3,50.4-0.3
			l0.6-21.9l-62.6-0.3C172.2-837.1,152.8-834.5,150.1-818.8z"/>
		<path class="st1" d="M253.9-838.9l0.6,110.8c0,0,2.4,13.3,16.4,17.2s31.3-2.7,31.3-2.7l-3.6-19.3l-11.6-0.3l-5.7-5v-100.7H253.9z"
			/>
		<rect x="313.3" y="-802.8" class="st1" width="27.5" height="89.2"/>
		<path class="st1" d="M334.8-841h-14.3c-4,0-7.1,3.2-7.1,7.2v10.9c0,4,3.2,7.2,7.1,7.2h14.3c4,0,7.1-3.2,7.1-7.2v-10.9
			C341.9-837.8,338.7-841,334.8-841z"/>
		<path class="st1" d="M371.8-826.5v24.3l-16.7,0.6l0.3,18.1l16.1,0.3l0.3,52.4c0,0,0.6,21,21.8,20.7s28.6-3.8,28.6-3.8l-2.7-19.3
			h-14.3c0,0-6.9,0.3-6.9-6.5s0.6-44.4,0.6-44.4l23.9,0.9l0.3-18.1h-24.2l-0.3-24.6L371.8-826.5z"/>
		<path class="st1" d="M503.6-748.9c0,0,16.4-4.5,17.9-15.7c1.5-11.3-1.5-19-7.2-29.3c-5.7-10.4-33.1-10.7-51-9.2
			c-17.9,1.5-26.3,19.5-26.3,19.5s-11.9,48.6,10.1,64.9s71.3,2.4,71.3,2.4l-1.8-17.8c0,0-27.5,2.7-40.6,1.8S463.4-748,463.4-748
			L503.6-748.9z M462.2-765.2c-0.2-1.5-1-9.6,4.5-15.4c7-7.3,20.8-7.1,25.9-0.6c2.4,2.9,4,8.5,1.4,12.4c-1.4,2.2-3.6,3.1-4.9,3.5
			L462.2-765.2L462.2-765.2z"/>
		<rect x="150.1" y="-685" class="st2" width="371.8" height="61.2"/>
		
			<text transform="matrix(1.0503 0 0 1 195.1831 -626.4658)" style="font-family:'ArialMT'; font-size:69.9916px; letter-spacing:5.7;">STUDIO</text>
	</g>
	<text transform="matrix(1 0 0 1 -146.5385 -194.2083)" style="fill:#E6E6E6; font-family:'MADETOMMY-Black'; font-size:35px;">Graphic Design </text>
	<text transform="matrix(1 0 0 1 232.1844 -194.2083)" style="fill:#E6E6E6; font-family:'MADETOMMY-Black'; font-size:35px;">Videography</text>
	<text transform="matrix(1 0 0 1 454.7283 -194.2083)" style="fill:#E6E6E6; font-family:'MADETOMMY-Black'; font-size:35px;"> Tech Support</text>
</g>
<g id="Logo">
	<g>
		<ellipse class="st3" cx="108" cy="76.8" rx="10.2" ry="10"/>
		<path class="st3" d="M96.7,102.1c0,5.8-4.7,10.4-10.6,10.4c-6.7,0-10.5-6.5-10.6-10.4c0-0.9,0.2-0.9,0.1-1.9
			c-0.2-4.4-3.7-7.5-5.4-9c-4.4-3.9-9.4-4.9-11.4-5.4c-0.3-0.1-0.5-0.1-0.6-0.1c-5.6-0.4-9.8-5.1-9.8-10.4c0-5.1,3.9-9.5,9.1-10.2
			c2-0.2,7.8-0.9,13-5.5c3.7-3.3,5.3-7,6-8.9c-0.2-0.9-0.4-1.8-0.4-2.7c0-5.8,4.7-10.4,10.6-10.4c5.8,0,10.6,4.7,10.6,10.4
			s-4.7,10.4-10.6,10.4c-1,0-2-0.1-2.9-0.4c-2.8,0.7-6.7,1.9-9.7,4.8c-3.2,3.1-4.1,6.8-5.4,8.4c0.5,1.2,0.8,2.6,0.8,4
			c0,1.1-0.2,2.1-0.5,3.1c0.2,1.3,1.2,5.7,5.1,9.3c3.7,3.4,7.9,4,9.3,4.1c0.7-0.1,1.6-0.2,2.6-0.1C90.4,92,96.7,95.6,96.7,102.1z"/>
		<path class="st3" d="M92.1,79.1"/>
	</g>
</g>
</svg>
